<svg width="120" height="57" viewBox="0 0 120 57" fill="none" xmlns="http://www.w3.org/2000/svg">
<path d="M58.4109 30.8441L62.3336 32.8764C61.5134 33.9466 60.4851 34.8062 59.2489 35.4551C58.0126 36.1041 56.6635 36.4286 55.2014 36.4286C53.561 36.4286 52.0632 36.0244 50.7081 35.216C49.3649 34.4077 48.2891 33.3261 47.4808 31.9713C46.6843 30.605 46.2861 29.0965 46.2861 27.4456C46.2861 26.1933 46.5179 25.0263 46.9815 23.9447C47.4451 22.8517 48.0811 21.8954 48.8894 21.0756C49.7096 20.2445 50.6605 19.5956 51.7423 19.1288C52.824 18.662 53.977 18.4286 55.2014 18.4286C56.6635 18.4286 58.0126 18.753 59.2489 19.402C60.4851 20.051 61.5134 20.9219 62.3336 22.0149L58.4109 24.0301C57.9948 23.5747 57.5015 23.2217 56.9309 22.9713C56.3722 22.7208 55.7957 22.5956 55.2014 22.5956C54.3455 22.5956 53.5729 22.8233 52.8834 23.2787C52.194 23.7227 51.6472 24.3147 51.243 25.0548C50.8389 25.7834 50.6368 26.5804 50.6368 27.4456C50.6368 28.2995 50.8389 29.0965 51.243 29.8365C51.6472 30.5652 52.194 31.1515 52.8834 31.5956C53.5729 32.0396 54.3455 32.2616 55.2014 32.2616C55.8195 32.2616 56.4079 32.1364 56.9666 31.8859C57.5253 31.624 58.0067 31.2768 58.4109 30.8441Z" fill="#101010"/>
<path d="M72.8229 36.4286C71.1825 36.4286 69.6847 36.0244 68.3296 35.216C66.9864 34.4077 65.9106 33.3261 65.1023 31.9713C64.3059 30.605 63.9077 29.0965 63.9077 27.4456C63.9077 26.1933 64.1395 25.0263 64.6031 23.9447C65.0666 22.8517 65.7026 21.8954 66.5109 21.0756C67.3311 20.2445 68.2821 19.5956 69.3638 19.1288C70.4455 18.662 71.5985 18.4286 72.8229 18.4286C74.4633 18.4286 75.9551 18.8327 77.2984 19.6411C78.6535 20.4494 79.7292 21.5367 80.5257 22.903C81.334 24.2692 81.7381 25.7834 81.7381 27.4456C81.7381 28.6866 81.5064 29.8479 81.0428 30.9295C80.5792 32.0111 79.9373 32.9675 79.1171 33.7986C78.3088 34.6183 77.3637 35.2616 76.282 35.7284C75.2122 36.1952 74.0592 36.4286 72.8229 36.4286ZM72.8229 32.2616C73.6907 32.2616 74.4693 32.0396 75.1587 31.5956C75.8481 31.1515 76.389 30.5652 76.7813 29.8365C77.1854 29.1079 77.3875 28.3109 77.3875 27.4456C77.3875 26.5576 77.1795 25.7493 76.7634 25.0206C76.3593 24.2806 75.8065 23.6942 75.1052 23.2616C74.4158 22.8176 73.655 22.5956 72.8229 22.5956C71.967 22.5956 71.1944 22.8176 70.5049 23.2616C69.8155 23.7056 69.2687 24.2976 68.8645 25.0377C68.4604 25.7777 68.2583 26.5804 68.2583 27.4456C68.2583 28.3451 68.4663 29.1591 68.8824 29.8878C69.2984 30.6164 69.8512 31.1971 70.5406 31.6297C71.2419 32.051 72.0027 32.2616 72.8229 32.2616Z" fill="#101010"/>
<path d="M95.639 30.8441L99.5617 32.8764C98.7415 33.9466 97.7132 34.8062 96.477 35.4551C95.2407 36.1041 93.8916 36.4286 92.4295 36.4286C90.7891 36.4286 89.2913 36.0244 87.9362 35.216C86.593 34.4077 85.5172 33.3261 84.7089 31.9713C83.9124 30.605 83.5142 29.0965 83.5142 27.4456C83.5142 26.1933 83.746 25.0263 84.2096 23.9447C84.6732 22.8517 85.3092 21.8954 86.1175 21.0756C86.9377 20.2445 87.8886 19.5956 88.9704 19.1288C90.0521 18.662 91.2051 18.4286 92.4295 18.4286C93.8916 18.4286 95.2407 18.753 96.477 19.402C97.7132 20.051 98.7415 20.9219 99.5617 22.0149L95.639 24.0301C95.2229 23.5747 94.7296 23.2217 94.159 22.9713C93.6003 22.7208 93.0238 22.5956 92.4295 22.5956C91.5736 22.5956 90.801 22.8233 90.1115 23.2787C89.4221 23.7227 88.8753 24.3147 88.4711 25.0548C88.0669 25.7834 87.8649 26.5804 87.8649 27.4456C87.8649 28.2995 88.0669 29.0965 88.4711 29.8365C88.8753 30.5652 89.4221 31.1515 90.1115 31.5956C90.801 32.0396 91.5736 32.2616 92.4295 32.2616C93.0476 32.2616 93.636 32.1364 94.1947 31.8859C94.7534 31.624 95.2348 31.2768 95.639 30.8441Z" fill="#101010"/>
<path d="M115.65 18.9068H120V35.9845H115.65L115.454 33.8669C114.966 34.6297 114.318 35.2502 113.51 35.7284C112.714 36.1952 111.769 36.4286 110.675 36.4286C109.356 36.4286 108.119 36.1895 106.966 35.7113C105.813 35.2331 104.797 34.5728 103.917 33.7303C103.05 32.8878 102.366 31.9143 101.867 30.81C101.379 29.7056 101.136 28.5216 101.136 27.2578C101.136 26.0396 101.368 24.8954 101.831 23.8252C102.307 22.7549 102.966 21.8157 103.81 21.0073C104.654 20.199 105.629 19.5671 106.735 19.1117C107.84 18.6563 109.029 18.4286 110.301 18.4286C111.477 18.4286 112.529 18.679 113.457 19.18C114.396 19.6809 115.192 20.3185 115.846 21.0927L115.65 18.9068ZM110.568 32.4153C111.495 32.4153 112.315 32.1933 113.029 31.7493C113.742 31.3052 114.301 30.7075 114.705 29.9561C115.109 29.1933 115.311 28.3565 115.311 27.4456C115.311 26.5234 115.109 25.6866 114.705 24.9352C114.301 24.1724 113.736 23.569 113.011 23.125C112.298 22.6809 111.483 22.4589 110.568 22.4589C109.653 22.4589 108.815 22.6866 108.054 23.142C107.305 23.5861 106.705 24.1838 106.253 24.9352C105.813 25.6866 105.593 26.5234 105.593 27.4456C105.593 28.3679 105.819 29.2047 106.271 29.9561C106.723 30.7075 107.323 31.3052 108.072 31.7493C108.833 32.1933 109.665 32.4153 110.568 32.4153Z" fill="#101010"/>
<circle cx="18" cy="26.1429" r="18" fill="#31543B"/>
<path d="M23.527 30.3782L27.4284 32.3494C26.4775 33.5855 25.2679 34.5744 23.7996 35.3161C22.3453 36.0577 20.7652 36.4286 19.0591 36.4286C17.1294 36.4286 15.3674 35.9667 13.7733 35.0428C12.1931 34.119 10.9276 32.8829 9.97666 31.3345C9.03975 29.7731 8.57129 28.0491 8.57129 26.1624C8.57129 24.7311 8.84397 23.3974 9.38934 22.1613C9.93471 20.9122 10.6828 19.8192 11.6337 18.8824C12.5986 17.9325 13.7173 17.1908 14.9898 16.6574C16.2624 16.1239 17.6188 15.8571 19.0591 15.8571C20.7652 15.8571 22.3453 16.228 23.7996 16.9696C25.2679 17.7113 26.4775 18.7067 27.4284 19.9558L23.527 21.9271C22.9396 21.2765 22.2544 20.7821 21.4713 20.4438C20.6882 20.0924 19.8842 19.9168 19.0591 19.9168C17.9125 19.9168 16.8707 20.2095 15.9338 20.7951C15.0108 21.3676 14.2767 22.1288 13.7313 23.0786C13.1999 24.0155 12.9342 25.0434 12.9342 26.1624C12.9342 27.2684 13.2069 28.2963 13.7523 29.2461C14.2977 30.183 15.0318 30.9377 15.9547 31.5102C16.8916 32.0827 17.9264 32.3689 19.0591 32.3689C19.9261 32.3689 20.7512 32.1868 21.5343 31.8224C22.3174 31.4581 22.9816 30.9767 23.527 30.3782Z" fill="white"/>
</svg>
